<?xml version="1.0" encoding="UTF-8" standalone="no"?>
<!DOCTYPE svg PUBLIC "-//W3C//DTD SVG 1.1//EN" "http://www.w3.org/Graphics/SVG/1.1/DTD/svg11.dtd">
<!-- Created with Vectornator (http://vectornator.io/) -->
<svg height="100%" stroke-miterlimit="10" style="fill-rule:nonzero;clip-rule:evenodd;stroke-linecap:round;stroke-linejoin:round;" version="1.1" viewBox="0 0 136 52" width="100%" xml:space="preserve" xmlns="http://www.w3.org/2000/svg" xmlns:vectornator="http://vectornator.io" xmlns:xlink="http://www.w3.org/1999/xlink">
<defs/>
<g id="Untitled" vectornator:layerName="Untitled">
<path d="M19.2 5.8C26.2 5.8 31.9 11.6 31.9 18.6C31.9 25.7 26.2 31.4 19.2 31.4C12.2 31.4 6.5 25.8 6.5 18.7C6.5 11.6 12.2 5.8 19.2 5.8M19.2 0.5C9.2 0.5 1.2 8.6 1.2 18.7C1.2 28.8 9.3 36.9 19.2 36.9C29.2 36.9 37.2 28.8 37.2 18.7C37.2 8.6 29.2 0.5 19.2 0.5M116.8 5.8C123.8 5.8 129.5 11.6 129.5 18.6C129.5 25.7 123.8 31.4 116.8 31.4C109.8 31.4 104 25.8 104 18.7C104 11.6 109.7 5.8 116.8 5.8M116.8 0.5C106.8 0.5 98.8 8.6 98.8 18.7C98.8 28.8 106.9 36.9 116.8 36.9C126.8 36.9 134.8 28.8 134.8 18.7C134.8 8.6 126.7 0.5 116.8 0.5M65.4 1.2L65.4 6.5L54.5 6.5L54.5 35.8L49.2 35.8L49.2 6.5L38.3 6.5L38.3 1.2L65.4 1.2ZM97.7 1.2L97.7 6.5L86.8 6.5L86.8 35.8L81.5 35.8L81.5 6.5L70.6 6.5L70.6 1.2L97.7 1.2ZM31.2 49.7L29.1 46.5L29.1 51.4L27.9 51.4L27.9 44.5L29.2 44.5L31.2 47.8L33.3 44.5L34.6 44.5L34.6 51.4L33.4 51.4L33.4 46.5L31.2 49.7ZM46.8 51.5C44.7 51.5 43.3 49.9 43.3 48C43.3 46.1 44.8 44.5 46.9 44.5C49 44.5 50.4 46.1 50.4 48C50.4 49.9 48.9 51.5 46.8 51.5M46.8 45.5C45.5 45.5 44.5 46.6 44.5 47.9C44.5 49.2 45.5 50.3 46.8 50.3C48.1 50.3 49.1 49.2 49.1 47.9C49.1 46.6 48.2 45.5 46.8 45.5M62 51.4L60.8 51.4L60.8 45.6L58.7 45.6L58.7 44.5L64.2 44.5L64.2 45.6L62 45.6L62 51.4ZM76.3 51.5C74.2 51.5 72.8 49.9 72.8 48C72.8 46.1 74.3 44.5 76.4 44.5C78.5 44.5 79.9 46.1 79.9 48C79.9 49.9 78.4 51.5 76.3 51.5M76.3 45.5C75 45.5 74 46.6 74 47.9C74 49.2 75 50.3 76.3 50.3C77.6 50.3 78.6 49.2 78.6 47.9C78.6 46.6 77.7 45.5 76.3 45.5M93 51.4L91.3 49L89.8 49L89.8 51.4L88.6 51.4L88.6 44.6L91.6 44.6C93.2 44.6 94.1 45.4 94.1 46.8C94.1 47.9 93.4 48.6 92.5 48.9L94.3 51.5L93 51.5L93 51.4ZM91.5 45.6L89.8 45.6L89.8 47.9L91.5 47.9C92.4 47.9 92.9 47.5 92.9 46.7C93 46 92.4 45.6 91.5 45.6ZM105.9 47.4C107.3 47.8 108.1 48.3 108.1 49.4C108.1 50.7 107.1 51.4 105.7 51.4C104.7 51.4 103.7 51 102.9 50.3L103.6 49.4C104.2 50 104.9 50.3 105.7 50.3C106.4 50.3 106.9 50 106.9 49.4C106.9 48.9 106.6 48.6 105.4 48.3C104 47.9 103.1 47.5 103.1 46.3C103.1 45.1 104.1 44.3 105.4 44.3C106.4 44.3 107.2 44.6 107.9 45.2L107.3 46.1C106.7 45.6 106.1 45.4 105.5 45.4C104.8 45.4 104.4 45.8 104.4 46.2C104.3 46.9 104.6 47.1 105.9 47.4" fill="#131313" fill-rule="evenodd" opacity="1" stroke="none" vectornator:layerName="path"/>
</g>
</svg>
